<svg version="1.1" xmlns="http://www.w3.org/2000/svg" xmlns:xlink="http://www.w3.org/1999/xlink" width="722.30704" height="541.73028" viewBox="0,0,722.30704,541.73028"><g transform="translate(118.90127,89.17595)"><g fill="#3c0000" stroke="none" stroke-width="6.23247" stroke-miterlimit="10"><path d="M174.53597,136.545v22.5721h-22.5721v-22.5721z"/><path d="M197.10806,159.11709v22.5721h-22.5721v-22.5721z"/><path d="M219.68016,136.545v22.5721h-22.5721v-22.5721z"/><path d="M242.25225,159.11709v22.5721h-22.5721v-22.5721z"/><path d="M84.24759,136.545v22.5721h-22.5721v-22.5721z"/><path d="M106.81968,159.11709v22.5721h-22.5721v-22.5721z"/><path d="M129.39178,136.545v22.5721h-22.5721v-22.5721z"/><path d="M151.96387,159.11709v22.5721h-22.5721v-22.5721z"/><path d="M-6.04079,136.545v22.5721h-22.5721v-22.5721z"/><path d="M16.5313,159.11709v22.5721h-22.5721v-22.5721z"/><path d="M39.1034,136.545v22.5721h-22.5721v-22.5721z"/><path d="M61.67549,159.11709v22.5721h-22.5721v-22.5721z"/><path d="M-96.32917,136.545v22.5721h-22.5721v-22.5721z"/><path d="M-73.75708,159.11709v22.5721h-22.5721v-22.5721z"/><path d="M-51.18498,136.545v22.5721h-22.5721v-22.5721z"/><path d="M-28.61289,159.11709v22.5721h-22.5721v-22.5721z"/><path d="M535.68949,136.545v22.5721h-22.5721v-22.5721z"/><path d="M558.26158,159.11709v22.5721h-22.5721v-22.5721z"/><path d="M580.83368,136.545v22.5721h-22.5721v-22.5721z"/><path d="M603.40577,159.11709v22.5721h-22.5721v-22.5721z"/><path d="M445.40111,136.545v22.5721h-22.5721v-22.5721z"/><path d="M467.9732,159.11709v22.5721h-22.5721v-22.5721z"/><path d="M490.5453,136.545v22.5721h-22.5721v-22.5721z"/><path d="M513.11739,159.11709v22.5721h-22.5721v-22.5721z"/><path d="M355.11273,136.545v22.5721h-22.5721v-22.5721z"/><path d="M377.68482,159.11709v22.5721h-22.5721v-22.5721z"/><path d="M400.25692,136.545v22.5721h-22.5721v-22.5721z"/><path d="M422.82901,159.11709v22.5721h-22.5721v-22.5721z"/><path d="M264.82435,136.545v22.5721h-22.5721v-22.5721z"/><path d="M287.39644,159.11709v22.5721h-22.5721v-22.5721z"/><path d="M309.96854,136.545v22.5721h-22.5721v-22.5721z"/><path d="M332.54063,159.11709v22.5721h-22.5721v-22.5721z"/><path d="M174.53597,91.40081v22.5721h-22.5721v-22.5721z"/><path d="M197.10806,113.9729v22.5721h-22.5721v-22.5721z"/><path d="M219.68016,91.40081v22.5721h-22.5721v-22.5721z"/><path d="M242.25225,113.9729v22.5721h-22.5721v-22.5721z"/><path d="M84.24759,91.40081v22.5721h-22.5721v-22.5721z"/><path d="M106.81968,113.9729v22.5721h-22.5721v-22.5721z"/><path d="M129.39178,91.40081v22.5721h-22.5721v-22.5721z"/><path d="M151.96387,113.9729v22.5721h-22.5721v-22.5721z"/><path d="M-6.04079,91.40081v22.5721h-22.5721v-22.5721z"/><path d="M16.5313,113.9729v22.5721h-22.5721v-22.5721z"/><path d="M39.1034,91.40081v22.5721h-22.5721v-22.5721z"/><path d="M61.67549,113.9729v22.5721h-22.5721v-22.5721z"/><path d="M-96.32917,91.40081v22.5721h-22.5721v-22.5721z"/><path d="M-73.75708,113.9729v22.5721h-22.5721v-22.5721z"/><path d="M-51.18498,91.40081v22.5721h-22.5721v-22.5721z"/><path d="M-28.61289,113.9729v22.5721h-22.5721v-22.5721z"/><path d="M535.68949,91.40081v22.5721h-22.5721v-22.5721z"/><path d="M558.26158,113.9729v22.5721h-22.5721v-22.5721z"/><path d="M580.83368,91.40081v22.5721h-22.5721v-22.5721z"/><path d="M603.40577,113.9729v22.5721h-22.5721v-22.5721z"/><path d="M445.40111,91.40081v22.5721h-22.5721v-22.5721z"/><path d="M467.9732,113.9729v22.5721h-22.5721v-22.5721z"/><path d="M490.5453,91.40081v22.5721h-22.5721v-22.5721z"/><path d="M513.11739,113.9729v22.5721h-22.5721v-22.5721z"/><path d="M355.11273,91.40081v22.5721h-22.5721v-22.5721z"/><path d="M377.68482,113.9729v22.5721h-22.5721v-22.5721z"/><path d="M400.25692,91.40081v22.5721h-22.5721v-22.5721z"/><path d="M422.82901,113.9729v22.5721h-22.5721v-22.5721z"/><path d="M264.82435,91.40081v22.5721h-22.5721v-22.5721z"/><path d="M287.39644,113.9729v22.5721h-22.5721v-22.5721z"/><path d="M309.96854,91.40081v22.5721h-22.5721v-22.5721z"/><path d="M332.54063,113.9729v22.5721h-22.5721v-22.5721z"/><path d="M174.53597,46.25662v22.5721h-22.5721v-22.5721z"/><path d="M197.10806,68.82871v22.5721h-22.5721v-22.5721z"/><path d="M219.68016,46.25662v22.5721h-22.5721v-22.5721z"/><path d="M242.25225,68.82871v22.5721h-22.5721v-22.5721z"/><path d="M84.24759,46.25662v22.5721h-22.5721v-22.5721z"/><path d="M106.81968,68.82871v22.5721h-22.5721v-22.5721z"/><path d="M129.39178,46.25662v22.5721h-22.5721v-22.5721z"/><path d="M151.96387,68.82871v22.5721h-22.5721v-22.5721z"/><path d="M-6.04079,46.25662v22.5721h-22.5721v-22.5721z"/><path d="M16.5313,68.82871v22.5721h-22.5721v-22.5721z"/><path d="M39.1034,46.25662v22.5721h-22.5721v-22.5721z"/><path d="M61.67549,68.82871c0,0 0,8.17788 0,12.05987c0,3.62435 0,10.51223 0,10.51223h-22.5721v-22.5721z"/><path d="M-96.32917,46.25662v22.5721h-22.5721v-22.5721z"/><path d="M-73.75708,68.82871v22.5721h-22.5721v-22.5721z"/><path d="M-51.18498,46.25662v22.5721h-22.5721v-22.5721z"/><path d="M-28.61289,68.82871v22.5721h-22.5721v-22.5721z"/><path d="M535.68949,46.25662v22.5721h-22.5721v-22.5721z"/><path d="M558.26158,68.82871v22.5721h-22.5721v-22.5721z"/><path d="M580.83368,46.25662v22.5721h-22.5721v-22.5721z"/><path d="M603.40577,68.82871v22.5721h-22.5721v-22.5721z"/><path d="M445.40111,46.25662v22.5721h-22.5721v-22.5721z"/><path d="M467.9732,68.82871v22.5721h-22.5721v-22.5721z"/><path d="M490.5453,46.25662v22.5721h-22.5721v-22.5721z"/><path d="M513.11739,68.82871v22.5721h-22.5721v-22.5721z"/><path d="M355.11273,46.25662v22.5721h-22.5721v-22.5721z"/><path d="M377.68482,68.82871v22.5721h-22.5721v-22.5721z"/><path d="M400.25692,46.25662v22.5721h-22.5721v-22.5721z"/><path d="M422.82901,68.82871v22.5721h-22.5721v-22.5721z"/><path d="M264.82435,46.25662v22.5721h-22.5721v-22.5721z"/><path d="M287.39644,68.82871v22.5721h-22.5721v-22.5721z"/><path d="M309.96854,46.25662v22.5721h-22.5721v-22.5721z"/><path d="M332.54063,68.82871v22.5721h-22.5721v-22.5721z"/><path d="M174.53597,1.11243v22.5721h-22.5721v-22.5721z"/><path d="M197.10806,23.68452v22.5721h-22.5721v-22.5721z"/><path d="M219.68016,1.11243v22.5721h-22.5721v-22.5721z"/><path d="M242.25225,23.68452v22.5721h-22.5721v-22.5721z"/><path d="M84.24759,1.11243v22.5721h-22.5721v-22.5721z"/><path d="M106.81968,23.68452v22.5721h-22.5721v-22.5721z"/><path d="M129.39178,1.11243v22.5721h-22.5721v-22.5721z"/><path d="M151.96387,23.68452v22.5721h-22.5721v-22.5721z"/><path d="M-6.04079,1.11243v22.5721h-22.5721v-22.5721z"/><path d="M16.5313,23.68452v22.5721h-22.5721v-22.5721z"/><path d="M39.1034,1.11243v22.5721h-22.5721v-22.5721z"/><path d="M61.67549,23.68452v22.5721h-22.5721v-22.5721z"/><path d="M-96.32917,1.11243v22.5721h-22.5721v-22.5721z"/><path d="M-73.75708,23.68452v22.5721h-22.5721v-22.5721z"/><path d="M-51.18498,1.11243v22.5721h-22.5721v-22.5721z"/><path d="M-28.61289,23.68452v22.5721h-22.5721v-22.5721z"/><path d="M535.68949,1.11243v22.5721h-22.5721v-22.5721z"/><path d="M558.26158,23.68452v22.5721h-22.5721v-22.5721z"/><path d="M580.83368,1.11243v22.5721h-22.5721v-22.5721z"/><path d="M603.40577,23.68452v22.5721h-22.5721v-22.5721z"/><path d="M445.40111,1.11243v22.5721h-22.5721v-22.5721z"/><path d="M467.9732,23.68452v22.5721h-22.5721v-22.5721z"/><path d="M490.5453,1.11243v22.5721h-22.5721v-22.5721z"/><path d="M513.11739,23.68452v22.5721h-22.5721v-22.5721z"/><path d="M355.11273,1.11243v22.5721h-22.5721v-22.5721z"/><path d="M377.68482,23.68452v22.5721h-22.5721v-22.5721z"/><path d="M400.25692,1.11243v22.5721h-22.5721v-22.5721z"/><path d="M422.82901,23.68452v22.5721h-22.5721v-22.5721z"/><path d="M264.82435,1.11243v22.5721h-22.5721v-22.5721z"/><path d="M287.39644,23.68452v22.5721h-22.5721v-22.5721z"/><path d="M309.96854,1.11243v22.5721h-22.5721v-22.5721z"/><path d="M332.54063,23.68452v22.5721h-22.5721v-22.5721z"/><path d="M174.53597,-44.03176v22.5721h-22.5721v-22.5721z"/><path d="M197.10806,-21.45967v22.5721h-22.5721v-22.5721z"/><path d="M219.68016,-44.03176v22.5721h-22.5721v-22.5721z"/><path d="M242.25225,-21.45967v22.5721h-22.5721v-22.5721z"/><path d="M84.24759,-44.03176v22.5721h-22.5721v-22.5721z"/><path d="M106.81968,-21.45967v22.5721h-22.5721v-22.5721z"/><path d="M129.39178,-44.03176v22.5721h-22.5721v-22.5721z"/><path d="M151.96387,-21.45967v22.5721h-22.5721v-22.5721z"/><path d="M-6.04079,-44.03176v22.5721h-22.5721v-22.5721z"/><path d="M16.5313,-21.45967v22.5721h-22.5721v-22.5721z"/><path d="M39.1034,-44.03176v22.5721h-22.5721v-22.5721z"/><path d="M61.67549,-21.45967v22.5721h-22.5721v-22.5721z"/><path d="M-96.32917,-44.03176v22.5721h-22.5721v-22.5721z"/><path d="M-73.75708,-21.45967v22.5721h-22.5721v-22.5721z"/><path d="M-51.18498,-44.03176v22.5721h-22.5721v-22.5721z"/><path d="M-28.61289,-21.45967v22.5721h-22.5721v-22.5721z"/><path d="M535.68949,-44.03176v22.5721h-22.5721v-22.5721z"/><path d="M558.26158,-21.45967v22.5721h-22.5721v-22.5721z"/><path d="M580.83368,-44.03176v22.5721h-22.5721v-22.5721z"/><path d="M603.40577,-21.45967v22.5721h-22.5721v-22.5721z"/><path d="M445.40111,-44.03176v22.5721h-22.5721v-22.5721z"/><path d="M467.9732,-21.45967v22.5721h-22.5721v-22.5721z"/><path d="M490.5453,-44.03176v22.5721h-22.5721v-22.5721z"/><path d="M513.11739,-21.45967v22.5721h-22.5721v-22.5721z"/><path d="M355.11273,-44.03176v22.5721h-22.5721v-22.5721z"/><path d="M377.68482,-21.45967v22.5721h-22.5721v-22.5721z"/><path d="M400.25692,-44.03176v22.5721h-22.5721v-22.5721z"/><path d="M422.82901,-21.45967v22.5721h-22.5721v-22.5721z"/><path d="M264.82435,-44.03176v22.5721h-22.5721v-22.5721z"/><path d="M287.39644,-21.45967v22.5721h-22.5721v-22.5721z"/><path d="M309.96854,-44.03176v22.5721h-22.5721v-22.5721z"/><path d="M332.54063,-21.45967v22.5721h-22.5721v-22.5721z"/><path d="M174.53597,-89.17595v22.5721h-22.5721v-22.5721z"/><path d="M197.10806,-66.60386v22.5721h-22.5721v-22.5721z"/><path d="M219.68016,-89.17595v22.5721h-22.5721v-22.5721z"/><path d="M242.25225,-66.60386v22.5721h-22.5721v-22.5721z"/><path d="M84.24759,-89.17595v22.5721h-22.5721v-22.5721z"/><path d="M106.81968,-66.60386v22.5721h-22.5721v-22.5721z"/><path d="M129.39178,-89.17595v22.5721h-22.5721v-22.5721z"/><path d="M151.96387,-66.60386v22.5721h-22.5721v-22.5721z"/><path d="M-6.04079,-89.17595v22.5721h-22.5721v-22.5721z"/><path d="M16.5313,-66.60386v22.5721h-22.5721v-22.5721z"/><path d="M39.1034,-89.17595v22.5721h-22.5721v-22.5721z"/><path d="M61.67549,-66.60386v22.5721h-22.5721v-22.5721z"/><path d="M-96.32917,-89.17595v22.5721h-22.5721v-22.5721z"/><path d="M-73.75708,-66.60386v22.5721h-22.5721v-22.5721z"/><path d="M-51.18498,-89.17595v22.5721h-22.5721v-22.5721z"/><path d="M-28.61289,-66.60386v22.5721h-22.5721v-22.5721z"/><path d="M535.68949,-89.17595v22.5721h-22.5721v-22.5721z"/><path d="M558.26158,-66.60386v22.5721h-22.5721v-22.5721z"/><path d="M580.83368,-89.17595v22.5721h-22.5721v-22.5721z"/><path d="M603.40577,-66.60386v22.5721h-22.5721v-22.5721z"/><path d="M445.40111,-89.17595v22.5721h-22.5721v-22.5721z"/><path d="M467.9732,-66.60386v22.5721h-22.5721v-22.5721z"/><path d="M490.5453,-89.17595v22.5721h-22.5721v-22.5721z"/><path d="M513.11739,-66.60386v22.5721h-22.5721v-22.5721z"/><path d="M355.11273,-89.17595v22.5721h-22.5721v-22.5721z"/><path d="M377.68482,-66.60386v22.5721h-22.5721v-22.5721z"/><path d="M400.25692,-89.17595v22.5721h-22.5721v-22.5721z"/><path d="M422.82901,-66.60386v22.5721h-22.5721v-22.5721z"/><path d="M264.82435,-89.17595v22.5721h-22.5721v-22.5721z"/><path d="M287.39644,-66.60386v22.5721h-22.5721v-22.5721z"/><path d="M309.96854,-89.17595v22.5721h-22.5721v-22.5721z"/><path d="M332.54063,-66.60386v22.5721h-22.5721v-22.5721z"/><path d="M174.53597,407.41014v22.5721h-22.5721v-22.5721z"/><path d="M197.10806,429.98223v22.5721h-22.5721v-22.5721z"/><path d="M219.68016,407.41014v22.5721h-22.5721v-22.5721z"/><path d="M242.25225,429.98223v22.5721h-22.5721v-22.5721z"/><path d="M84.24759,407.41014v22.5721h-22.5721v-22.5721z"/><path d="M106.81968,429.98223v22.5721h-22.5721v-22.5721z"/><path d="M129.39178,407.41014v22.5721h-22.5721v-22.5721z"/><path d="M151.96387,429.98223v22.5721h-22.5721v-22.5721z"/><path d="M-6.04079,407.41014v22.5721h-22.5721v-22.5721z"/><path d="M16.5313,429.98223v22.5721h-22.5721v-22.5721z"/><path d="M39.1034,407.41014v22.5721h-22.5721v-22.5721z"/><path d="M61.67549,429.98223v22.5721h-22.5721v-22.5721z"/><path d="M-96.32917,407.41014v22.5721h-22.5721v-22.5721z"/><path d="M-73.75708,429.98223v22.5721h-22.5721v-22.5721z"/><path d="M-51.18498,407.41014v22.5721h-22.5721v-22.5721z"/><path d="M-28.61289,429.98223v22.5721h-22.5721v-22.5721z"/><path d="M535.68949,407.41014v22.5721h-22.5721v-22.5721z"/><path d="M558.26158,429.98223v22.5721h-22.5721v-22.5721z"/><path d="M580.83368,407.41014v22.5721h-22.5721v-22.5721z"/><path d="M603.40577,429.98223v22.5721h-22.5721v-22.5721z"/><path d="M445.40111,407.41014v22.5721h-22.5721v-22.5721z"/><path d="M467.9732,429.98223v22.5721h-22.5721v-22.5721z"/><path d="M490.5453,407.41014v22.5721h-22.5721v-22.5721z"/><path d="M513.11739,429.98223v22.5721h-22.5721v-22.5721z"/><path d="M355.11273,407.41014v22.5721h-22.5721v-22.5721z"/><path d="M377.68482,429.98223v22.5721h-22.5721v-22.5721z"/><path d="M400.25692,407.41014v22.5721h-22.5721v-22.5721z"/><path d="M422.82901,429.98223v22.5721h-22.5721v-22.5721z"/><path d="M264.82435,407.41014v22.5721h-22.5721v-22.5721z"/><path d="M287.39644,429.98223v22.5721h-22.5721v-22.5721z"/><path d="M309.96854,407.41014v22.5721h-22.5721v-22.5721z"/><path d="M332.54063,429.98223v22.5721h-22.5721v-22.5721z"/><path d="M174.53597,362.26595v22.5721h-22.5721v-22.5721z"/><path d="M197.10806,384.83804v22.5721h-22.5721v-22.5721z"/><path d="M219.68016,362.26595v22.5721h-22.5721v-22.5721z"/><path d="M242.25225,384.83804v22.5721h-22.5721v-22.5721z"/><path d="M84.24759,362.26595v22.5721h-22.5721v-22.5721z"/><path d="M106.81968,384.83804v22.5721h-22.5721v-22.5721z"/><path d="M129.39178,362.26595v22.5721h-22.5721v-22.5721z"/><path d="M151.96387,384.83804v22.5721h-22.5721v-22.5721z"/><path d="M-6.04079,362.26595v22.5721h-22.5721v-22.5721z"/><path d="M16.5313,384.83804v22.5721h-22.5721v-22.5721z"/><path d="M39.1034,362.26595v22.5721h-22.5721v-22.5721z"/><path d="M61.67549,384.83804v22.5721h-22.5721v-22.5721z"/><path d="M-96.32917,362.26595v22.5721h-22.5721v-22.5721z"/><path d="M-73.75708,384.83804v22.5721h-22.5721v-22.5721z"/><path d="M-51.18498,362.26595v22.5721h-22.5721v-22.5721z"/><path d="M-28.61289,384.83804v22.5721h-22.5721v-22.5721z"/><path d="M535.68949,362.26595v22.5721h-22.5721v-22.5721z"/><path d="M558.26158,384.83804v22.5721h-22.5721v-22.5721z"/><path d="M580.83368,362.26595v22.5721h-22.5721v-22.5721z"/><path d="M603.40577,384.83804v22.5721h-22.5721v-22.5721z"/><path d="M445.40111,362.26595v22.5721h-22.5721v-22.5721z"/><path d="M467.9732,384.83804v22.5721h-22.5721v-22.5721z"/><path d="M490.5453,362.26595v22.5721h-22.5721v-22.5721z"/><path d="M513.11739,384.83804v22.5721h-22.5721v-22.5721z"/><path d="M355.11273,362.26595v22.5721h-22.5721v-22.5721z"/><path d="M377.68482,384.83804v22.5721h-22.5721v-22.5721z"/><path d="M400.25692,362.26595v22.5721h-22.5721v-22.5721z"/><path d="M422.82901,384.83804v22.5721h-22.5721v-22.5721z"/><path d="M264.82435,362.26595v22.5721h-22.5721v-22.5721z"/><path d="M287.39644,384.83804v22.5721h-22.5721v-22.5721z"/><path d="M309.96854,362.26595v22.5721h-22.5721v-22.5721z"/><path d="M332.54063,384.83804v22.5721h-22.5721v-22.5721z"/><path d="M174.53597,317.12176v22.5721h-22.5721v-22.5721z"/><path d="M197.10806,339.69385v22.5721h-22.5721v-22.5721z"/><path d="M219.68016,317.12176v22.5721h-22.5721v-22.5721z"/><path d="M242.25225,339.69385v22.5721h-22.5721v-22.5721z"/><path d="M84.24759,317.12176v22.5721h-22.5721v-22.5721z"/><path d="M106.81968,339.69385v22.5721h-22.5721v-22.5721z"/><path d="M129.39178,317.12176v22.5721h-22.5721v-22.5721z"/><path d="M151.96387,339.69385v22.5721h-22.5721v-22.5721z"/><path d="M-6.04079,317.12176v22.5721h-22.5721v-22.5721z"/><path d="M16.5313,339.69385v22.5721h-22.5721v-22.5721z"/><path d="M39.1034,317.12176v22.5721h-22.5721v-22.5721z"/><path d="M61.67549,339.69385v22.5721h-22.5721v-22.5721z"/><path d="M-96.32917,317.12176v22.5721h-22.5721v-22.5721z"/><path d="M-73.75708,339.69385v22.5721h-22.5721v-22.5721z"/><path d="M-51.18498,317.12176v22.5721h-22.5721v-22.5721z"/><path d="M-28.61289,339.69385v22.5721h-22.5721v-22.5721z"/><path d="M535.68949,317.12176v22.5721h-22.5721v-22.5721z"/><path d="M558.26158,339.69385v22.5721h-22.5721v-22.5721z"/><path d="M580.83368,317.12176v22.5721h-22.5721v-22.5721z"/><path d="M603.40577,339.69385v22.5721h-22.5721v-22.5721z"/><path d="M445.40111,317.12176v22.5721h-22.5721v-22.5721z"/><path d="M467.9732,339.69385v22.5721h-22.5721v-22.5721z"/><path d="M490.5453,317.12176v22.5721h-22.5721v-22.5721z"/><path d="M513.11739,339.69385v22.5721h-22.5721v-22.5721z"/><path d="M355.11273,317.12176v22.5721h-22.5721v-22.5721z"/><path d="M377.68482,339.69385v22.5721h-22.5721v-22.5721z"/><path d="M400.25692,317.12176v22.5721h-22.5721v-22.5721z"/><path d="M422.82901,339.69385v22.5721h-22.5721v-22.5721z"/><path d="M264.82435,317.12176v22.5721h-22.5721v-22.5721z"/><path d="M287.39644,339.69385v22.5721h-22.5721v-22.5721z"/><path d="M309.96854,317.12176v22.5721h-22.5721v-22.5721z"/><path d="M332.54063,339.69385v22.5721h-22.5721v-22.5721z"/><path d="M174.53597,271.97757v22.5721h-22.5721v-22.5721z"/><path d="M197.10806,294.54966v22.5721h-22.5721v-22.5721z"/><path d="M219.68016,271.97757v22.5721h-22.5721v-22.5721z"/><path d="M242.25225,294.54966v22.5721h-22.5721v-22.5721z"/><path d="M84.24759,271.97757v22.5721h-22.5721v-22.5721z"/><path d="M106.81968,294.54966v22.5721h-22.5721v-22.5721z"/><path d="M129.39178,271.97757v22.5721h-22.5721v-22.5721z"/><path d="M151.96387,294.54966v22.5721h-22.5721v-22.5721z"/><path d="M-6.04079,271.97757v22.5721h-22.5721v-22.5721z"/><path d="M16.5313,294.54966v22.5721h-22.5721v-22.5721z"/><path d="M39.1034,271.97757v22.5721h-22.5721v-22.5721z"/><path d="M61.67549,294.54966v22.5721h-22.5721v-22.5721z"/><path d="M-96.32917,271.97757v22.5721h-22.5721v-22.5721z"/><path d="M-73.75708,294.54966v22.5721h-22.5721v-22.5721z"/><path d="M-51.18498,271.97757v22.5721h-22.5721v-22.5721z"/><path d="M-28.61289,294.54966v22.5721h-22.5721v-22.5721z"/><path d="M535.68949,271.97757v22.5721h-22.5721v-22.5721z"/><path d="M558.26158,294.54966v22.5721h-22.5721v-22.5721z"/><path d="M580.83368,271.97757v22.5721h-22.5721v-22.5721z"/><path d="M603.40577,294.54966v22.5721h-22.5721v-22.5721z"/><path d="M445.40111,271.97757v22.5721h-22.5721v-22.5721z"/><path d="M467.9732,294.54966v22.5721h-22.5721v-22.5721z"/><path d="M490.5453,271.97757v22.5721h-22.5721v-22.5721z"/><path d="M513.11739,294.54966v22.5721h-22.5721v-22.5721z"/><path d="M355.11273,271.97757v22.5721h-22.5721v-22.5721z"/><path d="M377.68482,294.54966v22.5721h-22.5721v-22.5721z"/><path d="M400.25692,271.97757v22.5721h-22.5721v-22.5721z"/><path d="M422.82901,294.54966v22.5721h-22.5721v-22.5721z"/><path d="M264.82435,271.97757v22.5721h-22.5721v-22.5721z"/><path d="M287.39644,294.54966v22.5721h-22.5721v-22.5721z"/><path d="M309.96854,271.97757v22.5721h-22.5721v-22.5721z"/><path d="M332.54063,294.54966v22.5721h-22.5721v-22.5721z"/><path d="M174.53597,226.83338v22.5721h-22.5721v-22.5721z"/><path d="M197.10806,249.40547v22.5721h-22.5721v-22.5721z"/><path d="M219.68016,226.83338v22.5721h-22.5721v-22.5721z"/><path d="M242.25225,249.40547v22.5721h-22.5721v-22.5721z"/><path d="M84.24759,226.83338v22.5721h-22.5721v-22.5721z"/><path d="M106.81968,249.40547v22.5721h-22.5721v-22.5721z"/><path d="M129.39178,226.83338v22.5721h-22.5721v-22.5721z"/><path d="M151.96387,249.40547v22.5721h-22.5721v-22.5721z"/><path d="M-6.04079,226.83338v22.5721h-22.5721v-22.5721z"/><path d="M16.5313,249.40547v22.5721h-22.5721v-22.5721z"/><path d="M39.1034,226.83338v22.5721h-22.5721v-22.5721z"/><path d="M61.67549,249.40547v22.5721h-22.5721v-22.5721z"/><path d="M-96.32917,226.83338v22.5721h-22.5721v-22.5721z"/><path d="M-73.75708,249.40547v22.5721h-22.5721v-22.5721z"/><path d="M-51.18498,226.83338v22.5721h-22.5721v-22.5721z"/><path d="M-28.61289,249.40547v22.5721h-22.5721v-22.5721z"/><path d="M535.68949,226.83338v22.5721h-22.5721v-22.5721z"/><path d="M558.26158,249.40547v22.5721h-22.5721v-22.5721z"/><path d="M580.83368,226.83338v22.5721h-22.5721v-22.5721z"/><path d="M603.40577,249.40547v22.5721h-22.5721v-22.5721z"/><path d="M445.40111,226.83338v22.5721h-22.5721v-22.5721z"/><path d="M467.9732,249.40547v22.5721h-22.5721v-22.5721z"/><path d="M490.5453,226.83338v22.5721h-22.5721v-22.5721z"/><path d="M513.11739,249.40547v22.5721h-22.5721v-22.5721z"/><path d="M355.11273,226.83338v22.5721h-22.5721v-22.5721z"/><path d="M377.68482,249.40547v22.5721h-22.5721v-22.5721z"/><path d="M400.25692,226.83338v22.5721h-22.5721v-22.5721z"/><path d="M422.82901,249.40547v22.5721h-22.5721v-22.5721z"/><path d="M264.82435,226.83338v22.5721h-22.5721v-22.5721z"/><path d="M287.39644,249.40547v22.5721h-22.5721v-22.5721z"/><path d="M309.96854,226.83338v22.5721h-22.5721v-22.5721z"/><path d="M332.54063,249.40547v22.5721h-22.5721v-22.5721z"/><path d="M174.53597,181.68919v22.5721h-22.5721v-22.5721z"/><path d="M197.10806,204.26128v22.5721h-22.5721v-22.5721z"/><path d="M219.68016,181.68919v22.5721h-22.5721v-22.5721z"/><path d="M242.25225,204.26128v22.5721h-22.5721v-22.5721z"/><path d="M84.24759,181.68919v22.5721h-22.5721v-22.5721z"/><path d="M106.81968,204.26128v22.5721h-22.5721v-22.5721z"/><path d="M129.39178,181.68919v22.5721h-22.5721v-22.5721z"/><path d="M151.96387,204.26128v22.5721h-22.5721v-22.5721z"/><path d="M-6.04079,181.68919v22.5721h-22.5721v-22.5721z"/><path d="M16.5313,204.26128v22.5721h-22.5721v-22.5721z"/><path d="M39.1034,181.68919v22.5721h-22.5721v-22.5721z"/><path d="M61.67549,204.26128v22.5721h-22.5721v-22.5721z"/><path d="M-96.32917,181.68919v22.5721h-22.5721v-22.5721z"/><path d="M-73.75708,204.26128v22.5721h-22.5721v-22.5721z"/><path d="M-51.18498,181.68919v22.5721h-22.5721v-22.5721z"/><path d="M-28.61289,204.26128v22.5721h-22.5721v-22.5721z"/><path d="M535.68949,181.68919v22.5721h-22.5721v-22.5721z"/><path d="M558.26158,204.26128v22.5721h-22.5721v-22.5721z"/><path d="M580.83368,181.68919v22.5721h-22.5721v-22.5721z"/><path d="M603.40577,204.26128v22.5721h-22.5721v-22.5721z"/><path d="M445.40111,181.68919v22.5721h-22.5721v-22.5721z"/><path d="M467.9732,204.26128v22.5721h-22.5721v-22.5721z"/><path d="M490.5453,181.68919v22.5721h-22.5721v-22.5721z"/><path d="M513.11739,204.26128v22.5721h-22.5721v-22.5721z"/><path d="M355.11273,181.68919v22.5721h-22.5721v-22.5721z"/><path d="M377.68482,204.26128v22.5721h-22.5721v-22.5721z"/><path d="M400.25692,181.68919v22.5721h-22.5721v-22.5721z"/><path d="M422.82901,204.26128v22.5721h-22.5721v-22.5721z"/><path d="M264.82435,181.68919v22.5721h-22.5721v-22.5721z"/><path d="M287.39644,204.26128v22.5721h-22.5721v-22.5721z"/><path d="M309.96854,181.68919v22.5721h-22.5721v-22.5721z"/><path d="M332.54063,204.26128v22.5721h-22.5721v-22.5721z"/></g></g></svg>