<svg version="1.1" xmlns="http://www.w3.org/2000/svg" xmlns:xlink="http://www.w3.org/1999/xlink" width="151.11972" height="151.50002" viewBox="0,0,151.11972,151.50002"><g transform="translate(-164.44014,-104.24999)"><g stroke-miterlimit="10"><path d="M168.83803,254.00001c-1.46239,0 -2.64789,-3.73306 -2.64789,-8.33804v-131.32394c0,-4.60497 1.1855,-8.33804 2.64789,-8.33804h142.32394c1.46239,0 2.64789,3.73306 2.64789,8.33804v131.32394c0,4.60497 -1.1855,8.33804 -2.64789,8.33804z" fill="#ff0000" stroke="#000000" stroke-width="3.5" stroke-linecap="butt"/><text transform="translate(192.06164,134.54332) scale(0.5041,0.5041)" font-size="40" xml:space="preserve" fill="#ffffff" stroke="none" stroke-width="1" stroke-linecap="butt" font-family="Sans Serif" font-weight="normal" text-anchor="start"><tspan x="0" dy="0">TAB UTILS</tspan></text><path d="M201.8328,228.67193v-56.02525h74.93377v56.02525z" fill="none" stroke="#ffffff" stroke-width="3.5" stroke-linecap="butt"/><path d="M202.53312,171.94637v-14.70663h32.21452v14.70663z" fill="none" stroke="#ffffff" stroke-width="3.5" stroke-linecap="butt"/><path d="M236.94637,172.04416v-14.70663h39.91799v14.70663z" fill="none" stroke="#ffffff" stroke-width="3.5" stroke-linecap="butt"/><text transform="translate(207.43533,167.39432) scale(0.22686,0.22686)" font-size="40" xml:space="preserve" fill="#ffffff" stroke="none" stroke-width="1" stroke-linecap="butt" font-family="Sans Serif" font-weight="normal" text-anchor="start"><tspan x="0" dy="0">www</tspan></text><text transform="translate(243.24921,166.38904) scale(0.14036,0.14036)" font-size="40" xml:space="preserve" fill="#ffffff" stroke="none" stroke-width="1" stroke-linecap="butt" font-family="Sans Serif" font-weight="normal" text-anchor="start"><tspan x="0" dy="0">gamejolt</tspan></text><path d="M259.25868,199.95899c0,10.05612 -8.46563,18.2082 -18.90852,18.2082c-10.44289,0 -18.90852,-8.15209 -18.90852,-18.2082c0,-10.05612 8.46563,-18.2082 18.90852,-18.2082c10.44289,0 18.90852,8.15209 18.90852,18.2082z" fill="none" stroke="#ffffff" stroke-width="1.5" stroke-linecap="butt"/><path d="M240.35016,181.75079l0.70032,34.31546" fill="none" stroke="#ffffff" stroke-width="1.5" stroke-linecap="round"/><path d="M221.44164,200.65931c0,0 12.96029,5.60252 18.90852,5.60252c6.18159,0 17.50789,-5.60252 17.50789,-5.60252" fill="none" stroke="#ffffff" stroke-width="1.5" stroke-linecap="round"/><path d="M222.23975,191.653c0,0 12.96028,5.60252 18.90852,5.60252c6.18159,0 17.50789,-5.60252 17.50789,-5.60252" fill="none" stroke="#ffffff" stroke-width="1.5" stroke-linecap="round"/><path d="M222.33754,207.85805c0,0 12.96029,5.60253 18.90852,5.60253c6.18159,0 17.50789,-5.60253 17.50789,-5.60253" fill="none" stroke="#ffffff" stroke-width="1.5" stroke-linecap="round"/></g></g></svg>